# xmcd CD database file
#
# Track frame offsets:
#	150
#	17176
#	39349
#	68361
#	85901
#	102401
#	117636
#	135336
#	152521
#	170434
#	187205
#	211184
#
# Disc length: 3380 seconds
#
# Revision: 0
# Processed by: cddbd v1.5.2PL0 Copyright (c) Steve Scherf et al.
# Submitted via: jetAudio 7
#
DISCID=9a0d320c
DTITLE=Alain Apaloo - Alain CD
DYEAR=1900
DGENRE=Blues
TTITLE0=Information mix 2 mast_02.L
TTITLE1=Ease mix 3 mast_02.L
TTITLE2=Mina mix 5 mast_01.L
TTITLE3=Flying mix 6 mast_01.L
TTITLE4=Love you mast_01.L
TTITLE5=Fall mix 3 no djem mast_01.L
TTITLE6=Honey mix 3 mast_01.L
TTITLE7=Lullaby mix 4_01.L
TTITLE8=Rendez vous mast_01.L
TTITLE9=Easy Love mix 5_01.L
TTITLE10=Friend mix 3 mast_01.L
TTITLE11=vivid vibe mix 1mast_01.L
EXTD=
EXTT0=
EXTT1=
EXTT2=
EXTT3=
EXTT4=
EXTT5=
EXTT6=
EXTT7=
EXTT8=
EXTT9=
EXTT10=
EXTT11=
PLAYORDER=
